<?xml version="1.0" encoding="UTF-8"?>
<svg xmlns="http://www.w3.org/2000/svg" xmlns:xlink="http://www.w3.org/1999/xlink" width="48px" height="48px" viewBox="0 0 48 48" version="1.1">
<g id="surface1">
<path style=" stroke:none;fill-rule:nonzero;fill:rgb(29.803922%,25.098039%,20%);fill-opacity:1;" d="M 0 19.453125 L 11.855469 1.996094 C 12.183594 1.507812 12.730469 1.210938 13.320312 1.191406 C 13.90625 1.175781 14.46875 1.445312 14.824219 1.914062 L 34.589844 27.917969 L 21.304688 47.484375 Z M 0 19.453125 "/>
<path style=" stroke:none;fill-rule:nonzero;fill:rgb(23.921569%,18.823529%,16.078431%);fill-opacity:1;" d="M 0 19.453125 L 3.878906 16.507812 L 19.519531 8.089844 L 6.769531 17.832031 Z M 0 19.453125 "/>
<path style=" stroke:none;fill-rule:nonzero;fill:rgb(41.960784%,33.72549%,28.235294%);fill-opacity:1;" d="M 0 19.453125 L 6.769531 17.832031 L 28.066406 45.851562 L 21.296875 47.472656 Z M 0 19.453125 "/>
<path style=" stroke:none;fill-rule:nonzero;fill:rgb(59.607843%,48.627451%,39.607843%);fill-opacity:1;" d="M 6.746094 17.796875 L 25.730469 3.367188 C 26.8125 2.542969 28.363281 2.753906 29.1875 3.839844 L 47.484375 27.910156 C 48.328125 29.023438 48.113281 30.613281 47 31.460938 L 28.066406 45.851562 Z M 6.746094 17.796875 "/>
<path style=" stroke:none;fill-rule:nonzero;fill:rgb(75.686275%,61.176471%,44.313725%);fill-opacity:1;" d="M 28.363281 3.175781 C 41.800781 29.371094 36.75 33.875 28.066406 45.847656 L 47 31.460938 C 48.113281 30.613281 48.332031 29.023438 47.484375 27.910156 L 29.1875 3.839844 C 28.964844 3.5625 28.683594 3.335938 28.363281 3.175781 Z M 28.363281 3.175781 "/>
<path style=" stroke:none;fill-rule:nonzero;fill:rgb(85.490196%,76.470588%,55.686275%);fill-opacity:1;" d="M 28.730469 3.402344 C 44.914062 27.308594 48.746094 29.152344 28.066406 45.851562 L 47 31.460938 C 48.113281 30.613281 48.328125 29.023438 47.484375 27.910156 L 29.1875 3.839844 C 29.054688 3.675781 28.898438 3.527344 28.730469 3.402344 Z M 28.730469 3.402344 "/>
<path style=" stroke:none;fill-rule:nonzero;fill:rgb(19.215686%,56.862745%,100%);fill-opacity:1;" d="M 25.511719 29.050781 L 33.117188 4.164062 L 39.625 6.152344 L 32.019531 31.039062 Z M 25.511719 29.050781 "/>
<path style=" stroke:none;fill-rule:nonzero;fill:rgb(40%,67.45098%,100%);fill-opacity:1;" d="M 33.117188 4.164062 L 33.855469 1.742188 C 34.132812 0.828125 35.105469 0.3125 36.019531 0.59375 L 39.210938 1.566406 C 40.128906 1.847656 40.644531 2.816406 40.363281 3.734375 L 39.625 6.152344 Z M 33.117188 4.164062 "/>
<path style=" stroke:none;fill-rule:nonzero;fill:rgb(0%,37.254902%,80%);fill-opacity:1;" d="M 27.042969 35.683594 L 25.511719 29.050781 L 28.765625 30.046875 L 32.019531 31.039062 L 29.53125 33.359375 Z M 27.042969 35.683594 "/>
<path style=" stroke:none;fill-rule:nonzero;fill:rgb(0%,46.666667%,100%);fill-opacity:1;" d="M 30.054688 30.4375 L 37.65625 5.550781 L 39.625 6.152344 L 32.019531 31.039062 Z M 30.054688 30.4375 "/>
<path style=" stroke:none;fill-rule:nonzero;fill:rgb(100%,100%,100%);fill-opacity:1;" d="M 36.925781 8.410156 L 34.398438 10.8125 L 33.359375 10.492188 L 35.957031 8.085938 L 34.09375 7.515625 L 34.308594 6.824219 L 37.144531 7.691406 Z M 36.925781 8.410156 "/>
</g>
</svg>
